<svg width="400" height="400" xmlns="http://www.w3.org/2000/svg">
  <defs>
    <linearGradient id="grad1" x1="0%" y1="0%" x2="100%" y2="100%">
      <stop offset="0%" style="stop-color:#6366f1;stop-opacity:1" />
      <stop offset="100%" style="stop-color:#a855f7;stop-opacity:1" />
    </linearGradient>
  </defs>
  <rect width="400" height="400" fill="#f3f4f6" />
  
  <!-- Background Circle -->
  <circle cx="200" cy="160" r="100" fill="url(#grad1)" />
  
  <!-- Head -->
  <circle cx="200" cy="160" r="70" fill="#f8fafc" />
  
  <!-- Eyes -->
  <circle cx="175" cy="150" r="10" fill="#1e293b" />
  <circle cx="225" cy="150" r="10" fill="#1e293b" />
  
  <!-- Smile -->
  <path d="M170 180 Q200 210 230 180" stroke="#1e293b" stroke-width="5" fill="none" />
  
  <!-- Hair -->
  <path d="M130 130 Q200 80 270 130 L270 160 Q200 110 130 160 Z" fill="#334155" />
  
  <!-- Shoulders/Body -->
  <path d="M130 280 L130 400 L270 400 L270 280 Q200 300 130 280 Z" fill="#cbd5e1" />
  
  <!-- Collar -->
  <path d="M170 280 L200 320 L230 280" stroke="#94a3b8" stroke-width="4" fill="none" />
  
  <!-- Name -->
  <rect x="100" y="320" width="200" height="40" rx="5" fill="white" fill-opacity="0.7" />
  <text x="200" y="345" font-family="Arial" font-size="16" text-anchor="middle" fill="#1e293b">Rahul Sharma</text>
  <text x="200" y="365" font-family="Arial" font-size="12" text-anchor="middle" fill="#64748b">Creative Director</text>
</svg>
