<svg width="1200" height="630" xmlns="http://www.w3.org/2000/svg">
  <defs>
    <linearGradient id="grad1" x1="0%" y1="0%" x2="100%" y2="100%">
      <stop offset="0%" style="stop-color:#6366f1;stop-opacity:1" />
      <stop offset="100%" style="stop-color:#a855f7;stop-opacity:1" />
    </linearGradient>
    <linearGradient id="grad2" x1="0%" y1="0%" x2="100%" y2="0%">
      <stop offset="0%" style="stop-color:#6366f1;stop-opacity:0.7" />
      <stop offset="100%" style="stop-color:#a855f7;stop-opacity:0.7" />
    </linearGradient>
  </defs>
  
  <!-- Background -->
  <rect width="1200" height="630" fill="#0f172a" />
  
  <!-- Decorative Elements -->
  <circle cx="200" cy="200" r="300" fill="url(#grad1)" opacity="0.1" />
  <circle cx="1000" cy="500" r="250" fill="url(#grad1)" opacity="0.1" />
  <path d="M0 400 Q 400 200 800 400 T 1200 400" stroke="url(#grad2)" stroke-width="5" fill="none" />
  
  <!-- Logo -->
  <g transform="translate(100, 265)">
    <circle cx="50" cy="50" r="50" fill="url(#grad1)" />
    <path d="M30 50 L45 35 L60 50 L45 65 Z" fill="white" />
    <path d="M50 30 L65 45 L50 60 L35 45 Z" fill="white" />
    <path d="M70 50 L55 35 L70 20 L85 35 Z" fill="white" />
  </g>
  
  <!-- Text -->
  <text x="220" y="290" font-family="Arial" font-size="60" font-weight="bold" fill="white">Creative Studio</text>
  <text x="220" y="350" font-family="Arial" font-size="30" fill="#a5b4fc">Transform your ideas into visual stories</text>
  
  <!-- Call to Action -->
  <rect x="220" y="380" width="300" height="60" rx="30" fill="url(#grad1)" />
  <text x="370" y="420" font-family="Arial" font-size="24" text-anchor="middle" fill="white">Get in touch today</text>
</svg>
